<svg preserveAspectRatio="none" width="100%" height="100%" overflow="visible" style="display: block;" viewBox="0 0 11.334 13.0156" fill="none" xmlns="http://www.w3.org/2000/svg">
<g id="Link">
<path id="Icon" d="M6.2207 13.0156C5.84701 12.9792 5.47786 12.9792 5.11328 13.0156C5.14974 12.3411 5.16797 11.6621 5.16797 10.9785V7.79297H0.998047V8.50391H0V2.89844H5.16797V2.03711C5.16797 1.36263 5.14974 0.683594 5.11328 0C5.47786 0.0364583 5.84701 0.0364583 6.2207 0C6.18424 0.683594 6.16602 1.36263 6.16602 2.03711V2.89844H11.334V8.50391H10.3359V7.79297H6.16602V10.9785C6.16602 11.6621 6.18424 12.3411 6.2207 13.0156V13.0156M6.16602 6.97266H10.3359V3.71875H6.16602V6.97266V6.97266M5.16797 6.97266V3.71875H0.998047V6.97266H5.16797V6.97266" fill="var(--fill-0, #475569)"/>
</g>
</svg>
